<?xml version="1.0" encoding="utf-8"?>
<!-- Generator: Adobe Illustrator 24.0.2, SVG Export Plug-In . SVG Version: 6.00 Build 0)  -->
<svg version="1.1" id="Calque_1" xmlns="http://www.w3.org/2000/svg" xmlns:xlink="http://www.w3.org/1999/xlink" x="0px" y="0px"
	 viewBox="0 0 985.9 649.8" style="enable-background:new 0 0 985.9 649.8;" xml:space="preserve">
<style type="text/css">
	.st0{fill:#CCCCCC;stroke:#000000;stroke-width:2;}
	.st1{fill:#FF0000;stroke:#000000;stroke-width:2;}
	.st2{fill:none;stroke:#000000;stroke-width:2;}
	.st3{fill:none;stroke:#000000;stroke-width:2;stroke-dasharray:3.942,3.942;}
	.st4{fill:none;stroke:#000000;stroke-width:2;stroke-dasharray:3.976,3.976;}
	.st5{fill:none;stroke:#000000;stroke-width:2;stroke-dasharray:4;}
</style>
<title>Députés sortants du Morbihan en 2017</title>
<path class="st0" d="M575.2,332.6l-6.6,3.9l-6.2,10.3l-13.6-0.2l-2.1,6.8l8.7,6.5l-11.3,7l-1.1,6.3l-18.7-6.2l-14.5-1l-3.4,8.8
	l-6.6,2.9l-6.2,17.4l-4.1,3.6l-13.6,5.3l-7,3.9l-5.5-0.9l-4.7-1l-2.8,3.9l-1.9,8.2l9.2,16.1l3-14.5l1.5,9.4l5.5-7.7l1.5,6.2
	l-6.2,3.9l4.5,4.4l4.9-6.2l4.3,5.6l7.2,3.6l1.5-1.2v-15.9l14.5,5.6l2.6-4.1l-5.8-3.6l6.8-4.8l-0.6-3.2l-4.9,0.3l4.3-3.1l16.8,4.1
	l10.9-3.5l11.5,2.4l5.5-1.7l2.6-4.3l-2.1-4.3l9.6,1.2l2.6-7.2l7,14.9l2.8-5.3l3.6,9.1l-22.6-7.2l-0.9,3.2l26.6,13.7l-2.7-3.9
	l8.3,1.8l2.6,4.3l-1.3,5.8l2.1,8.9l-7,9.6l-1.3,8l1.1,3.9l-6.2,2.7l-1.5-1.5l-7.5,4.7l-15.1-2.1l1.1-5.1l-5.1-3.2l-7.5,2.6l1.1,6.7
	l-4-2.9l-1.5-9.1l-8.9-0.7l4.3,10.3l-6.6,2.4l0.2-7.9l-7.9,4.1l-5.5-2.6l0.4,5.3l-2.1,1.4l-4.7-1.5l1.5-7.9l-8.1,3.6l1.5-8.8l-4,3.2
	l-1.3-6.8l-9.4,5.1l-2.1-4.4l-8.7,3.5l3.4,6.2l-6.2,0.2l4,5l12.4-1.4l-8.5,3.8l3,2.6l4.7-3.1l13.2,5.6l6.8,7.9l3.2,0.3l3,14.1
	l18.7,7.7l5.8-1l5.5,2.1l8.5-6.7l17.7-2.2l13.2-5.1l8.9,1l19,6.8l9.2-17.1l13.6,2.2l3.6,3.5l2.8,4.1h3.2l14.5-8.2l12.1,0.2l11.7,2.6
	l3-0.3l4.5-6.3l5.1-2.1h11.3l9.2,5.3l19,4.3l14.7,8.9l1.7,1.7l10.4,0.9l5.8,0.7l8.3-6.5l9.8,4.1l12.1-6.8l-10.9-10.9l-5.1-15.9
	l-7-4.4l-5.8-1.4l-1.9,1.7l-4.7-3.9l8.1-9.7l7.9-0.3l4.3-5.1l2.8,0.3l1.7-6.7l-8.2-1.2l-1.3-1.8l3.8-6.2l-0.9-6.8l-3.4-1.7l-3.4-2.7
	l-5.5,1.5l-8.1-2.4l-8.7,1.5l-2.1-1.7l0.2-6.7l-7-4.4L732,402l-8.5-0.7l-6,8l-7.9-0.6l-10.2,3.5l1.1,12.1l-7.9-0.5l-10.2,2.6
	l-10,0.5l-4-2.4l1.9-4.1l-3.4-3.5l1.5-3.5l-4.9-10.6l-6.8-3.9l1.3-6.7l-6.6-4.4l-1.9-1.9l1.9-7l-2.3-1.2l-8.9-1l-15.5,6.8l-7.9-3.1
	l-5.3-5l-0.6,0.3l-4.5-2.4l-7.9,3.2l-7.2-4.1l-1.9-1.7l0.9-2.1l10.2-7.7l3-6.7l-1.5-1.8l-20.9-8.4l-0.9-9.1L575.2,332.6z
	 M519.4,419.8l-4.5,5.8l-4.3-1.9l1.7,3.6l-2.6,3.2l-3.4,15.7l1.1,6l1.1-0.7v-3.8l4.7-0.2l-2.6-4.8l2.1-8.2l0.9-1.2l1.1-0.9l1.3-0.5
	l11.7,0.7l-2.6-2.4l-6.6-1.7L519.4,419.8z M544.5,420.6l-1.1,5.5l-7.2,4.4l1.5,3.1l-3.6,1.8l1.1,3.6l1.3,0.5l6.8-7.7l5.8-4.1
	l-0.2-2.4l-2.8-2.9L544.5,420.6z"/>
<path class="st1" d="M420.4,241.4l-9.2,6.2l-4,6.5l-1.7,9.6l-4,3.3l-9.8-2.4l-0.9,2.4l-9.2,0.7l-7.9,7.2l-13,6l-1.9,4.4L352,298
	l-12.1,10l-11.9-3.1l-2.8-3.8l-8.3,0.9l-7.9-1.5l0.6-6.2l-7.2-9.4l-13.8-1l-26,17l-2.8,8.4l-4.9-2.4l-6.2,15.3l-5.1,2.7l-3,6.7
	l-7.5-0.5l0.9,4.7l-8.1-3.9l-1.3,6.8l3,6.3l-9.8,4.7l3.4,3.5l7.5-3.1l16.4,0.5l3.4,2.9l10.9,1.8l4.3,8.8l-5.5,0.5l-10.2-3.9
	l-10.4-5.6l-3.6,1.8l-6.6,1l-5.5-1.5l-4.9,5.6l2.6,2.7l6-5.5l20.9,2.2l19.2,7l36.8,25l1.3-5.1l-1.5-12l8.3-8.4l-9.4-8.5l11.5,4.1
	l11.1-3.8l4.7-0.7l10.2,1.7v2.4l-5.1,1.5l-3.6,3.8l-11.5-0.3l-4.7,2.7l-7.7,6.7l0.9,2.2l-1.1,2.2l1.9,9.2l-3.2,3.9l7.7,13.2l22.2,12
	l10.4,17.6l1.1,14.7l2.1,9.2l-3.2,6.5l-3,3.9l-7.9,3.2l3.2,3.9l1.1,11.6l5.3,13.7l6.2,5.3l8.9-0.5l14.1,3.6l2.8-0.3l-4.3-6.3
	l-12.8-10.3l-1.5-4.7l0.6-4.8l-4.6-2.7l-3.6-11.5l2.3-21.2l7.9-10.8l-7.9,1.5v-16.6l14.5,11.1l6.6,4.1l-7.5-1.2l4.3,9.4l18.7-5.8
	l6,2.9l1.7-6l6-0.7v-5.8l11.3,13.8l-3.6-15.7l2.6-0.7l0.4-0.2l8.1,13.3l4.3,2.9l5.1-2.2l-1.5-11.6l3.6,3.1l-0.4,2.4l9.4,5.5l4,11.8
	l6-7l4.5,6.2L469,455l-12.2-13.7l-12.6-8.9l8.1-6.5l-10-5.8l9.8-5.5l-4.7-13.9l-5.1,0.3l0.6-8l-6.4-7l2.6-2.9l2.1,3.5l4.7,5.8
	l-0.6,4.4l5.1,1.4l-1.9,1.7l2.6,6.2l7.9-1.5l4.5,2.7l5.5,0.9l7-3.9l13.6-5.3l4-3.6l6.2-17.4l6.6-2.9l3.4-8.8l-16-2.1l-1.7-1.9
	l5.1-12.7l-6.6-4.7l0.4-2.4l7.5-3.6l-1.7-12l1.9-9.1l-4.5-3.2l-17-3.8l-2.8-0.3l-3.2,3.9l6.4,4.7l-1.1,2.2l-5.8,0.9l-5.3-1.7
	l-8.1,2.7l-5.3-1.5l4.3-3.6l-2.3-4.4l1.9-9.4l-1.5-14.4l8.3-2.1l3.8-11.6l4.3-3.5l-17.3-4.8l-6.6-15l1.3-4.4l-1.9-1.7L420.4,241.4z
	 M431.6,561.9l-1.1,0.3l-0.2,1.2l0.4,2.4l4.3,1.2l6.4,5.1l8.7,1.8l1.7,3.5l4.3,3.2l-3-7.9l6.8-5.8l-7.2,1.2l-8.9-1.4L431.6,561.9z
	 M284.9,571.4l-2.8,0.9l-1.9,9.6l-4.3,3.1l-0.9,9.6l5.1,11.5l9.6,8.9l-6.6,7.7l14.7,11.3l16.8,0.7l10.9-3.9l8.9,5.8l5.8-0.3l7.9,3.6
	l11.9-0.3l10.9,4.4l3,0.3l2.6-1l4.7-3.1l10-17.1l-7.7-3.2l-15.1,0.7l-9.6-5.5l-3,0.2l-13.8-7.6l-8.5-19.8l-5.8,1.2l-14.1-2.9
	l-6.6-4.3h-5.8l-1.9,1.8l-0.4-4.8l-8.3-1.8L284.9,571.4z M503.4,597.9l-4,3.6h-6l-3.4-1.9l0.4,5.8l1.3,2.2l3.6,2.1l10-5l0.4-6
	L503.4,597.9z"/>
<path class="st0" d="M391.6,264.6l-5.6-8.1l0.3-19.5l-5.2-2.5L369,233l-7.6-4.1l5-2.5l9.1,4.7l5-2.2l0.3-18.6l-4.8-2.2l7.3-10
	l-0.1-4.7l-8.1-1.4l-5.6-5.1l-7.9,1.4l-2.3-1.3l-11.6-8.1l-5.6-8.8l1.6-12.4l4.2-3.3l-0.3-9.9l2.1-1.8l-7.7-9.8l-0.5-4.5l-6.8-4.4
	l-8.6,0.2l3.7-6.3l-1.3-4.6l6.7-7.6l9.6-5.4l10.1-3.4l4.5,6.3l11.6,7.5l8.9,1l15.1,8l9.1-0.3l5.2,2.3l9.1-13.8l5.8-0.3l4.2-3.2
	l-4.8-2.9l-0.4-4.8l-7.7-7.4l2.4-4l5.1,0.6l0.3-6.6l4.9-1.8l4,6.3l16.4-3.9l9.1,5.5l4.6-1l1.6-8.6l4-3.1l2.6,0.7l9.2-13.5l4.8-5.1
	l4.2,3.1l6.7-7.1l1.3-8.6L513,49l22.8-3.7l14.9,16.8l2.1,3.7l-1.2,4.1l3.1,3.7l1.7,13.3l7.7-7.1l6.1-13.5l1.9,1.8l11.4-1.8l14.2,2.8
	l1-4.4l15-9l5.6-0.4l8.4,8.7l-2.6,3.5l2.7,3.1l-2.3,4.3l1.9,4.5l-1.8,7l-9.1,17.4l2.5,4.3l-1,6.9l5.2,1.4l-0.6,5.5l2.9,3.1L628,139
	l-4,3.1l3.1,3.6l-1.2,6.8l2.6,4.2l9.8,3.5l0.9,9l-2.5,2.6l2.9,0.1l0.6,2.2l-8.9,5.6l-4.2,10.7l-1.9,11.6l2.2,4.4l10.2-4.5l5.8,0.2
	l7.6,2.9l9.9,8.2l-14.4,8.8l-4.9,6.3l4.6,10.7l5.3,5.4l4.9-2.1l8.9,0.1l5.7,5.3l5.8,0.9l-1.6,6.1l-4.5,3.1l3.7,11.3l1.3,2.2l5.8,0.6
	l5.3,5.6l-0.5,4.7l-5.1,5.7l9.9,3.2l-4.8,10.1l10.1,6.9l-4.2,5.5l3.7,3.9l-2.8,9.4l9.2,6.1l-1,4.2l-8.4,5.5l1.2,6.7l5.3,2.2
	l19.6,1.9l5.4,8l0.3,4.4l-10.4,12.9l3.7,5.9l-2.3,1.4l-8-1.9l-27.5,6.6L669.8,402l7.7,3.1l-9.6,8.7l-4.8-10.8l-6.9-3.9l1.2-6.7
	L651,388l-2-1.8l2-7l-2.5-1.3l-8.9-1l-15.5,6.7l-7.9-3.1l-5.4-4.9l-0.6,0.3l-4.5-2.3l-7.9,3.3l-7.1-4.3l-2.1-1.6l1-2.2l10.3-7.7
	l2.8-6.5l-1.5-1.9l-20.8-8.4l-1-9l-4.7-2.6l-6.5,3.9L562,347l-13.6-0.2l-2.3,6.8l8.8,6.5l-11.3,6.9l-1,6.3l-18.8-6.2l-14.4-1
	l-16.1-2l-1.6-1.8l5-12.7l-6.6-4.7l0.6-2.3l7.4-3.7l-1.8-11.9l2-9.2l-4.4-3.2l-17-3.7l-2.9-0.3l-3.2,3.8l6.4,4.7l-1.1,2.2l-5.6,0.8
	l-5.5-1.7l-7.9,2.7l-5.3-1.4l4.1-3.5l-2.3-4.5l2-9.5l-1.6-14.4l8.4-2l3.8-11.6l4.3-3.5l-17.2-4.8l-6.8-15l1.4-4.4l-1.8-1.8
	l-26.1-5.2l-9.2,6.2l-4.1,6.5l-1.7,9.6l-4.1,3.2L391.6,264.6z"/>
<path class="st0" d="M945.7,400.6l-0.5-2.2l5.1-1.6l0.1-2.2l-10.1-2.7l1.2-6.5l4.1-6.2l-0.4-7.1l-10.9-4.5l-0.8-7.1l2.9-11.6
	l-5.8-5.4l0.4-4.4l10.5-4.2l0.5-4.1l28.7-1.7l-1.4-9l-11.6,0.6l-3.5-8.4l-23.3,0.8l2-6.4l8-1.1l0.7-4.3l8.5-0.2l4.6-2.8l8.4-6.1
	l0.4-4.7l1-8.9l13.7-5.4l6.2-9.9l-7.8-3.1l-2.6-9.1l1.7-4.3l-2.2-8.1l-8.5,11.7l-15,6l-8.3-3.9l6-10.8l-8.7-10l-0.1-7.3l6.3-7.6
	l5.8-1.2l6.8-4.7l-1.1-3.9l2.9-3.4l-11.1-11.2l-3.8-11.3l-3.8-4.9l-5-1.3l-1.6-2l-9.2-11l-4.7-2.9l-17.5,2.7l-8.3-6.3l-10.9-3.9
	l-2.7,1.1l-13.8-4.3l-28.6,5.5l0.1-7.2l6.3-4.9l-3.4-6.3l1.1-2.2l4.2-6.9l13.7-11.6l4.2-3.4l29.6,0.1l11.5-7.5l-0.2-7.2l1.9-1.8
	L900,90l-23.6,2.9l-7.3,3.9l-0.3,6.8l-12,0.5l-0.5-6.7l4.5-8.1l-2.6-3.9l-1.3-4.9l0.1-9.8l-18-16.3l-17.2-0.2l-3.2,6.6l-4.4,3
	l-9.8-4.3l-6.1,10.5l-2.7-1.6l-6.6-7.6l-0.6-4.5l-0.7-7.3l-13.9-9.5l-4.3-9.1l-8-3.6l-15.1,0.5l-8.1,6.5l-14.2-1l-1.6,4.7l-26.6,0.6
	l11,13.3l0.3,4.7l-3.5,6.3l-8,10.1l-6.9,4.6l-3,3.7l1.8,13.4l-5.6,1.4l-3.6,3.7l-8.5-0.3l-1,2.2l-6.6,8l-18,12.7l-11.5-0.2l-1.8-1.9
	l-5.5,5.2L628,139l-4,3.1l3.1,3.6l-1.2,6.8l2.6,4.2l9.8,3.5l0.9,9l-2.5,2.6l2.9,0.1l0.6,2.2l-8.9,5.6l-4.3,10.7l-1.9,11.6l2.2,4.4
	l10.2-4.5l5.8,0.2l7.6,2.9l9.9,8.2l-14.4,8.8l-4.9,6.3l4.6,10.7l5.3,5.4l4.9-2.1l8.8,0.1l5.7,5.3l5.8,0.9l-1.6,6.1l-4.5,3.1
	l3.8,11.3l1.3,2.2l5.8,0.6l5.3,5.6l-0.5,4.7l-5.1,5.7l9.9,3.2l-4.8,10.1l10.1,6.9l-4.2,5.5l3.7,3.9l-2.8,9.4l9.2,6.1l-1,4.2
	l-8.4,5.5l1.2,6.7l5.2,2.2l19.6,1.9l5.4,8l0.3,4.4L714,378.8l3.7,5.9l-1.7,1.2l-8-1.9l-27.5,6.6L670,401.9l7.7,3.1l-9.6,8.7
	l-1.4,3.3l3.5,3.5l-2.1,4.1l4.2,2.4l9.9-0.5l10.2-2.6l8,0.5l-1.1-12.1l10.2-3.5l7.9,0.6l5.9-8l8.7,0.7l10.6-2.7l7,4.5l-0.1,6.7
	l2.2,1.6l8.7-1.6l8.1,2.5l5.6-1.6l3.4,2.7l3.3,1.7l0.9,6.8l-3.7,6.3l1.3,1.8l8,1l-1.7,6.7l-2.7-0.3l-4.4,5.1l-7.9,0.2l-8.1,9.9
	l4.7,3.9l2.1-1.7l5.7,1.4l6.9,4.5l5.1,15.8l10.9,10.9l-12.2,7l-9.8-4.1l-8.4,6.3l-5.6-0.6l-1.5,1.8l-11.8-1.3l-12.2,6.3l-15.3-7.6
	l-5.6,4.1l6.2,12.1l-4.5,8.8l2.1,7.1l7.1,4.3l7.5-4.1l5.9,0.6l5-10.6l5.4-1.6l10.1-7.7l1.7,7.1l5.6,5.5l8.7,1.5l10.3-4.3l6-0.3
	l6.5,5l23.1-4.5l1.6-14.1l7.5-10.4l1.4-12l0.6-0.2l10.2,3.4l11.5-0.6l2.1,1.6l-3.2,6.2l10,4.8l15.9-9.2l10.6-2.8l6-0.7l1.5,2.1
	l-2.4,9.1l1.9,1.8l11.7,1.6l6.4-4.8l1-16.7l5.5-2l26.1-5.9l1-4.7l-3.9-6.1l4.1-16.2l-4.8-3.4l2.7-0.9L946,428l9.3-5.5l0.7-2.2
	l0.3-9.6l-7.1-7.6L945.7,400.6z"/>
<path class="st0" d="M252.1,289.5l-14.3,11.1l-8.3-1.8l-8.5,2.1l-3.4,6.2l-1.1,4.7l4.3,0.3l5.5,14.1l12.8-3.6l-2.6-13.7l4.3,8
	l10.2-7.3l1.7-5.5l6.2,1.5l1.1-3.9l-6-4.4l1.5-6.3L252.1,289.5z M192,304.4l-3.4,6l-8.9-0.9l-4.7,3.2l-11.7-0.2l0.4,2.4l-10.6,7.2
	l-17.5,7.2l1.1,4.7l24.9,23.1l5.5,0.7l10.2-4.7l7.7,2.1l2.6-1.4l11.7,0.7l5.1-2.1l7.7-7.4l1.3-7l6.2-4.1l3.8-8.5l-3.8-10.4l-4-0.5
	l-4.9-7.7l-2.3,1.2L192,304.4z M136.2,387.9l-7.2,1.8v3.6l4,3.8l7.2,4.4l4.3,1.4l1.5,2.1l6,1.4l6.2,3.6h1.5l7.5-1.7l4.9-2.7l3.4,2.2
	l3,0.5l3.4,2.6l3-9.2l-8.9-6.5l-9.2-0.7l-26-6.5L136.2,387.9L136.2,387.9L136.2,387.9z"/>
<path class="st0" d="M423.3,79.4L423,86l-5.1-0.6l-2.4,4l7.7,7.4l0.4,4.8l4.8,2.9l-4.2,3.2l-5.8,0.3l-9.1,13.8l-5.2-2.3l-9.1,0.3
	l-15.1-8l-8.9-1l-11.6-7.5l-4.5-6.3l-10.1,3.4l-9.6,5.4l-6.7,7.6l1.3,4.6l-3.7,6.3l8.6-0.2l6.8,4.4l0.5,4.5l7.7,9.8l-2.1,1.8
	l0.3,9.9l-4.2,3.3l-1.6,12.4l5.6,8.8l11.6,8.1l2.3,1.3l7.9-1.4l5.6,5.1l8.1,1.4l0.1,4.7l-7.3,10l4.8,2.2l-0.3,18.6l-5,2.2l-9.1-4.7
	l-5,2.4l7.6,4.1l12.1,1.4l5.2,2.5l-0.3,19.5l5.6,8.1l-0.9,2.3l-9,0.8l-8,7.2l-13,6l-1.8,4.3l-7,12.7l-12,10l-12.1-3.1l-2.7-3.8
	l-8.4,1l-7.8-1.5l0.6-6.2l-7.2-9.5l-13.9-1l-26,16.9l-5.9-4.3l0.9-4.6l9.2-2.2l-11.1,1.3l-3.4-1.4l-14.2,11.2l-8.5-1.8l-8.5,2.1
	l-3.4,6l-4.7-3l-12.7-21.8l2.8-7l-1.7-4.8l-0.5-3.8l-2.1,4.3l2.7,4.2l-1.6,4.2l-7.7,1.2l5.8,1l7.9,12.5l-2.2,3.6l4.8,1.3l3,5.3
	l-0.8,2.7l-2.4,1.2l-16.1-3.6l-3.5,6.1l-9-0.9l-4.6,3.2l-11.9-0.1l0.6,2.2l-10.7,7.3l-17.6,7.1l-3.2-6.9L121,310.8l-1.8-11.8
	l2.6-4.4l4.9,0.9l-6.3-2.9l6-9.6l-4.2-0.3l1.8-3.5l-7.2-3.5l0.4-4.1l-3-1.6l0.1-8.4l8.5-7.2l0.2-2.4l2.2,0.3l0.2,6.7l5.8,5.1
	l10.4,4.5l3-0.2l7.6-7.3l8.8-0.6l5.1-8.2l-0.5-8.9l16.6-5.1l7.2,3.7l6,0.1l-3.2-3.7l0.9-11.8l-5.2-13.5l2.9-8.7l8.4-2.2l2.2-4.6
	l-7.5-10.4l4.5-6.2v-4.4l-4.7-2.4l-1.2-4.3l-2.9-0.2l-2.6-4.3l-2.8,0.8l-13.8,8.4l-11.4,1.8l-1.5,7l-2.4,1.4l-6.9-3.6l-3.1-11.2
	l-7-6.8l-11.6,0.5l-7.7-7.1l-8.7-1.1l-4.8-2.8l-11.7,0.9l-4.4,3.2l-4.7-2.3l-8.8-0.2l-4.5,3.1l-5.2,1.6l-11-2.1l-4.9-13.8l-6.9-8
	l-7.9-26l-15.6-6.9l-1.3-2.2l1.9-1.9l-2-9.6l5.1-6L15.8,79L1.4,80.4l1.9-4.6l-1.6-7.1l7.1-4.2l-2.1-3.8l7-7.4L13,48.7l7.9-2.9
	l1.9-4.3L37,41.9l10.6-3.3l18.9-10.3l32.4-10.3l6.7,4.3l12,1l20.8-3.2l9.4-2.1l6,4.7l11.3,0.3l2.5-1.2l0.7-4.6l13.3,9.5l-9.2,9.2
	l2.5,4.3l9.3,5.9l7.9-6.7l8.2,1l9-6.3l14.5-2.3L231,28l7.3,9.2l-0.8,4.4l4.4,2.3l1.6-4.5l8.5,0.2l5.2,1.8l4.1,6.1l7.9,2.2l0.8-2.2
	l9.7-3.8l8.4-0.8l15.5,5.5l-1.9-6.6l7.8-6.7l5.3-1.7l8.1,1.9l2.5,1.3l7.4-3.7l7.7,2.5l6.4-4.7l3.8-6.3l-3.7-3.8l0.3-4.8l3.6-6.7
	l5.6-1.6l2.9-4l10.3,0.8l1.6,1.8l2.7,0.2l4.8-5.1l2.7,0.1l4,3.3l8.7-0.9l4.9,2.6l5.8,0.2l3.2,4l8.5-0.7l-1.3,4.8l4,11.7l7.8,2.7
	l-1,6.7l11.8-0.4l9.2-5.6l11.4-1.7l21.9,5.5l8.4-0.6l7.8,9.6l-1.1,8.4l-6.7,7.1l-4.2-3.1l-4.8,5.1l-9.2,13.5l-2.6-0.7l-4,3.1
	l-1.6,8.5l-4.6,1l-9.1-5.5l-16.4,3.9l-4-6.3L423.3,79.4z"/>
<line class="st2" x1="258.9" y1="305.6" x2="257" y2="306.2"/>
<polyline class="st2" points="253.7,307.1 251.8,307.7 251.1,309.2 "/>
<polyline class="st3" points="249.8,312.2 247.4,317.7 239.9,325.9 228.8,329.4 216.9,345.2 211.7,355.6 209.5,366.2 204.2,377.2 
	201.3,392 186.3,418.1 164.7,441.2 "/>
<polyline class="st2" points="163.5,442.4 162.3,443.7 160.5,443.1 "/>
<polyline class="st4" points="156.8,441.9 135.6,434.5 113.3,423.6 101.5,402.1 104,377.2 118.7,352.9 133.5,332.1 "/>
<line class="st2" x1="134.5" y1="330.8" x2="135.5" y2="329.4"/>
<polyline class="st5" points="463.4,407.2 452.9,409.6 451.4,419.8 454,426.5 455,433.4 459.5,439.6 467,447.7 472.9,454.6 
	467.3,463.3 462.2,538.5 472.9,549.8 506.4,577.3 525.6,598.6 472.1,627.3 400.5,642 379,646 345.8,644.7 280.7,636.5 243.1,621.6 
	229.2,594.3 236.3,554.7 216.9,446.1 216.5,350 224.8,337.1 "/>
</svg>
