<?xml version="1.0" encoding="utf-8"?>
<!-- Generator: Adobe Illustrator 24.0.2, SVG Export Plug-In . SVG Version: 6.00 Build 0)  -->
<svg version="1.1" id="Calque_1" xmlns="http://www.w3.org/2000/svg" xmlns:xlink="http://www.w3.org/1999/xlink" x="0px" y="0px"
	 viewBox="0 0 973.5 793.8" style="enable-background:new 0 0 973.5 793.8;" xml:space="preserve">
<style type="text/css">
	.st0{fill:#CCCCCC;stroke:#000000;stroke-width:2;}
	.st1{fill:#FF0000;stroke:#000000;stroke-width:2;}
</style>
<title>Députés sortants du Nord en 2017</title>
<path class="st0" d="M835.9,681.8l-1.4-1.4l-3.3,5.2l-18.5,15l-2.3-4.9l4.1-4.5l-4.9,0.2l-6.2-3.9l1.7-6.6l-3.3-3.4l-6.3-1.8
	l0.1-6.8l-3.8,1.9l-6.5,12.1l-1.3-0.2l-9.7-5.4l-2.7-6.1l8.2-5.7l4.7-5.9l4.6-1.7l-0.6-4.3l4,0.3l2.8,2.8l7,5.1l8.8-0.1l1.5-1.6
	v-0.2l1.2-4l4.2,0.1l0.9-1.9l-1-1.8l4.3-6.6l4-1.6l3.8-7.4l-0.2-1.8l8.6,2.2l0.4,2.2l8.2-1.7l3.2-1.4l1.3-3.5l7.1,0.7l3.1,3.7
	l0.3-8.9l4.1-8l-2.9-4.5l-3.5-2.8l-3.2-8.3l-5.2-4.3l-2,0.8l-14.1-12.4l1.2-1.7l-6.8-3.4h-4.8l-3.6,3.3l-5.1-5.3l-6.4-0.9l-3.3,3.1
	l-8.9-1.2l-5.2,3.7l-2.2-2l-1.4,1.4l-4.8,5.1l-6.8,0.3l-8.8,1.5l-10.5-9.4l-0.2,0.1L757,584l-9.9-5.7l-2.1-4l1-4.2l-0.6-1.5
	l-4.6-6.1h-0.2l-1.8-3.1l2.9-3.3l-1.1-6.3l5.5,4.2l2.3-0.8l-0.9-10.5l2.1-3.8l0.2-4.9l3.5-6.2h9.3l0.9-2.2l7-1.4l7,1.3l4.1-2.3
	l3.8,2.3l-1.1,4.5l4.6-0.8l1.5-4.3l6.8-1.2l7.8,4.2l5.9,6.5l6.8-0.5l1.4,4.4l-1.3,4.4l6.6-0.3l8.5-3.3l18.9-11.2l2.4,0.4l0.1,4.8
	l2.1-4.2l6.6,2.8l2.9-3.7l9.2-2.6l5.2-4.6l5.6,10.6l6.5,3l11.2,12.8l0.8,7.3l0.1,0.4l9.1-1.7l4.1,5.8l4.5,1.1l3,9l-0.5,11.8l4.4-0.9
	l2.1,8.8l-1.5,1.7l12.9,1.3l1.4-6.9l-6.6-7l3.8-6.3l4.6,0.2l4,6.2l2.2,1.1l9.6,1.9l6.7,12.8l-7.3,9.7l-2.5,0.1l-7.1,5.8l-7.6,12
	l-7,1.2l4.3,10.7l-1.9,3.8l0.1,4.8l-2.9,6.6l2.3,6.6l-0.8,4.7l-5.7,4.7l-6.2,13.2l8.6,4.2l7.6-4.3l14.4,0.3l3.7,13.5l-2.6,4.1
	l3.1,3.4l0.3,4.6l10,12.8l1.2,6.9l-2.6,3.8l-10.5,5.2l-4.7,5.2l-8.8,1.7l-4.6-0.4l-10.5,18l-0.9,4.6l5.3,7.8l6.2,3l0.6,2.3l-2.8,6.5
	l-6.9,5.9l-16.2,5l-9.2,0.6l-2-6.5l-11.2-3.8l-7.1-0.2l-3.7,2.5l-4.3-2.8h-4.6l-2.5-6.4l-11.2,1.1l-0.3-7l6.8-17.4l-2.6-9l-3.3-2.2
	l2.4-8.5l11.8-6.4l4.7-0.2l6.7,0.3l12.7-4.4l5.5-6.5l-14.2-1.5l0.1-7.1l3.1-6.4l-3.2-3.2l-4,2.3l-4.5-1l-5.7,4l-2.3-0.4l-2.3-4
	l-6.4,15.5l-6.5,7.9l-9.9-7.9l3.3-3.4l0.7-4.8l5.8-4.5l2.2-4.4l0.3-4.9l-3.4-2.8l-4.5,1.1l-6.7-2.4l-2.3-4l-2.5-1.2l-0.8,3.2
	l-5.2-1.6L835.9,681.8z"/>
<path class="st0" d="M324.6,361.9l1.3-2.3l7.4-15.2l9.1-7.9l1.3-0.9l4.5-5.4l9.3,0.1l8,17.3l5.9-5.3l2.2,4.1l6.2,2.7l4.1,8.1
	l4.8-4.8l-1-1.5l3.2-1.1l15.3-3.6l-0.6-4l2.2-3.4l1.2-1.9h8.8l6.6,11.5l7.6,6.8l3.9,0.4l5.6-6.5h2.5l3.4,2.6l1.4,8.4l2.8,3l7.9,0.9
	l-1.2-6.3l0.8-2.2l4.6-0.6l7.2-12.1l8.3,7l2-1l-2.2,10.8l-10.5,8.6l-6.6,1.9l0.4,0.9l-8.7,3.9l-3.5,5.5l-2.6,17.9l-6.2,1.8l-4.5,7.2
	l-11.2-10l-3.1,3.1l-4-0.4l0.7,3.8l4.3,5.7v7.2l1.6,1.8l-2.3,6.7l-6.3-2.8L403.2,411l-0.7,1.8l-5.6-1.2l-10.7,2.9l-7.5,5.6l-2.4-2.6
	l-1.4,1.7l-4.3-0.9l-2.2-3.9l-2.2,0.1l2.2-17.8v-3.3l-2,1.2l-9.2,4.4l-4.4,0.8l-12.3,2.1l-4.7-1.8L331,401l-2-1.2l0.8-6.4l-3-8.2
	l4.2-1.4l4.2,1.3l0.8-11.8l-3.1-9.1L324.6,361.9z"/>
<path class="st0" d="M520.3,309.3l-1.6,1.5l-5.8,7.4l-0.8,7.1h0.5l-1.5,7.4l-1-2.1l-2.3,0.3l-7.6,6.1l-1.5,4.5l1.8,1.7l-3.3,5.3
	l-15.7,0.5l-2.3,10.9l-10.4,8.4l-6.6,2l0.3,1l-8.6,3.8l-3.5,5.6l-2.6,17.9l-6.1,1.8l-4.6,7.3l-11.1-9.9l-3.1,3.1l-4-0.5l0.7,3.8
	l4.3,5.8v7.3l1.6,1.7l-2.3,6.8l1.2,1.8l6.3,6.3l-3.3,6l-0.5,3.3l-3.6,8.8l3.8,2.6l-0.2,7.1l6.1-2l3.8,1.8l1.5-1.7l2-4.1l5.6-4
	l3.5-1.8l0.7,8.3l6.3,2.3l4.3-4.5l6.1-1.7l6.6,2.1l2.1,4.1l4.5,0.7l-0.5,4.6l4.5,1.2l1.5-1.7l3.2,0.5l11.7-3.5l6.8,3l4.1,6.1
	l4.8,1.3l4.6-5.3l-1.2-6.6l2.3-6.6l7.8,1.3l3.5,2.8l2.1,6.3l18,0.5l4.3,1.7l2.1-0.5l-0.5-6.9l4.3,0.2l-4.3-8.3l3.5,2.3l6.1-0.7
	l0.5-1.3l8.7-3.1l3-3.6l0.2-4.6l-2-3.5l-2.1,0.8l-5.1-5.1l-3.6-11.4l1.8-6.1l-2.6-0.2l-3.6-6.4l-15.4-7.3l-3.1-8.6l1-9.3l-2.6-4
	l3.8-2.5l-2.8-3.5l1.7-6.6l-2.5-3.8l0.8-8.9l-3.3-7.9l-0.7-4.6l-6-7.1l1.2-4.5l-3.6-5.6l-2.8-3.3l2-4l-1.7-3.5L520.3,309.3z
	 M503,322.9l-2.3,3.8l3.6,2.8l2.3,0.2l1.3-4.5L503,322.9z"/>
<path class="st0" d="M345,295.1l-7.9-3.9l-3.2,8.5l-0.3,1l5.4,5.7l6.4,1.6l4.5,4.8l10.9,15l-3.5,2.5l8,17.3l5.9-5.3l2.2,4.1l6.3,2.7
	l4.1,8.1l4.8-4.8l-1-1.5l3.2-1.1l15.3-3.6l-0.6-4l2.2-3.4l1.2-1.9h8.8l0.9-3.8l6.6-1.5l3.6,2.4l3.4,9l3.8,3l2.4-0.5l2.4-5.9l0.1-1.6
	l1.9-2.7l-1.4-4.8l-3.6-6.5l-2.5-2.3l-3.1,2.4l-11.6-11.5l-8.6-6.3l-5.8,2.2l-8.3-11.4l3.4-4.3l4.3-0.9l5.6-8.7l-6.8-11.7l-6-2.9
	l-2.5-6.2l-4.8-4.9l-3.1,3.4l-0.1,9.6l-3.5,6.3l-4.6-0.5l-1,6.5l-4.3,0.8l-7.3-9l-6.3,2.1l-6.3,12L345,295.1z"/>
<path class="st0" d="M831.2,685.6l-18.5,15l-2.3-4.9l4.1-4.5l-4.9,0.2l-6.2-3.9l1.7-6.6l-3.3-3.4l-6.3-1.8l0.1-6.8l-3.8,1.9
	l-6.6,12.1l-1.3-0.2l-9.7-5.4l-2.7-6.1l8.2-5.7l4.7-5.9l4.6-1.7l-0.6-4.3l4,0.3l2.8,2.8l7,5.1l8.8-0.1l1.5-1.6v-0.2l1.2-4l4.2,0.1
	l0.9-1.9l-1-1.8l4.3-6.6l4-1.6l3.8-7.4l-0.2-1.8l8.6,2.2l0.4,2.2l8.2-1.7l3.2-1.4l1.3-3.5l7.1,0.7l3.1,3.7l0.3-8.9l4.1-8l-2.9-4.5
	l-3.5-2.8l-3.2-8.3l-5.2-4.3l-2,0.8l-14.1-12.4l1.2-1.7l-6.8-3.4h-4.8l-3.6,3.3l-5.1-5.3l-6.4-0.9l-3.3,3.1l-8.9-1.2l-5.2,3.7
	l-2.2-2l-1.4,1.4l-4.8,5.1l-6.8,0.3l-8.8,1.5l-10.5-9.4l-0.2,0.1L757,584l-9.9-5.7l-2.1-4l1-4.2l-0.6-1.5l-4.6-6.1h-0.2l-1.8-3.1
	l-1.1-1.2l-7.8-9.4l-2.7-6.6l-5.1-5.2l-8.1,4l-1.8,4.2l-4.2,1.7l0.1-2l-5.6-1.9l-2.3,0.2l-2.9,6.4l-5.1,4.6l-2.4-1.2l-5.7,6.1
	l-14.7,3l-2.3,3.2l1.8,3.8l-3.6,5.7l-6.3,2.4l-3.6-0.4l-6,0.9l-8.2-1.2l-1.7,1.3l-1.8,1.5l2.2,4.1l-4.9,12.8l-0.4,3l-1.4,0.6
	l-6.1-7.2l-11.8-2L603.1,603l-6-1.3l-11.6,13l-3.1,5l-2.2-0.6l-5.4,3.6l-8.6-1.5l5.1,16.5l2.4,4.4l-7.4,10.9h-2.2l0.2,5.2l-8.4,1.8
	l-1.3,4l2.9,3.1l-0.7,4.2l-2.1-1.2l-5.7,4.2l3.8,2.2l-2,6l1.9,6.3l8.7,3.7l3.3-3.3l2.4,0.5l2.3-0.8l3.1,0.9l7,1.7l13-1.3l5.3-9.7
	l5.2-5.8l3,3.5l4.3-1.3l8.7,2.9l-0.6-8.5l10,8.8l0.2-1.7l3.4,0.6l3.6-0.3l1.9-6.9l12.6-7.4l14.6,8.6l1,4l3.6,2.9l-2.3,3.8l2.8,3.4
	l1.7,0.2l3.3-3.4l8.8-3.3l4.7-0.7l3.8,2.3l2.4-1.6l14.2,8l6.3,6l4.4,1l3.4,5.8l2.3-0.2l1.9,4.2l5.4,4.2l-2.5,6l8.8,10.1l2.2-2
	l13.7,11l13.3,3.1l1.2,2.2l9.4-1l7.6,5.9l9.5-6.1l5,5.1l9.3,2l6.1,3.7l0.5,2.3l-2.3,0.8l3.8,3.1l0.3,9.7l16-11.6l11.4-2.3l0.7,1.9
	l14.6-12.3l2.4-8.5l11.8-6.4l4.7-0.2l6.7,0.3l12.7-4.4l5.5-6.5l-14.2-1.5l0.1-7.1l3.1-6.4l-3.2-3.2l-4,2.3l-4.5-1l-5.7,4l-2.3-0.4
	l-2.3-4l-6.4,15.5l-6.5,7.9l-9.9-7.9l3.3-3.4l0.7-4.8l5.8-4.5l2.2-4.4l0.3-4.9l-3.4-2.8l-4.5,1.1l-6.7-2.4l-2.3-4L843,683l-1.1-0.6
	l-0.8,3.2l-2.4-0.7l-2.8-0.9l-0.2-1.8l-1.4-1.4l-0.4,0.6L831.2,685.6z"/>
<path class="st0" d="M114,65.5l-1.6,1.7l0.3,0.4L99.3,79.5l-2,3L77.9,50.3l-0.2-12.6l10.8-4.2l17.2-4.7l21.6-6.6l7.7,6.3l7.3,1.8
	l5.4-1.4l4.6,11.1l11.2,15.3l8.4,19.7l-6.3,9.2l-5.5-0.7l-14.5-16.7l-6.9,11.8l-2.4,0.3l-7-6.9l-1.8-7.1L114,65.5z"/>
<path class="st0" d="M112.4,67.2l0.3,0.4L99.3,79.5l-2,3L77.9,50.3l-0.2-12.6L63.6,42l-6.8-5.6h-4.1l-6.3-2.9l5.5,3.9H56l1,8
	l-8.3,3.5l6.3,3.8l-4.4,1.5l0.1,6.2l-4.2-4.6l1.9-1.6L45.3,49l-6.1,2l-1.8-8.6L33.8,49l-8.4,6l-5.8,7.2l4.3,8.9l-7.6-9.5l-9-2.3
	l-7.1,1.3l9.5,2.1L19.2,74l-0.4,2.5l5.4,3.7l1.7,6.3l4.7,5l2.8,11.2l4.3,10.6l6.4,14.9l10.4,26.4l0.7,2.3l0.9,7.3l5.1,8.2l-0.4,4.8
	l2.5,3.5l1.5,13.2l0.9,6.4l6,1.9l7.2,8l5.4,6l8.5,3.4l6.3-2.5l0.4,7l10.8-7.2l2-3.9v-5.2l-0.4-12.7l5.5,0.7l3.7-11.6l-2.2-4.5
	l16.4-11.1l7,2.2l3.9-2.8l14-5.4l6,13.8l6.1-3.2l1.3-2.8l10,14.4l5.5-2.3l5.5-12.7l8.7-7.2l5.1,11.1l4.5-5.9l-0.1-5l4.2-6.1
	l9.1-18.3l15.4-6.3l0.9-4.5l-6.5-2.3L235,123l8.5-8.5L253,104l-0.2-2.5l-10.4-28.3l-12.7-7.9l-2.6-9.3l1.4-2l-4.2-21.5l-3.1-17.2
	l-5.9-13.8l-23.4,11.6l-9.4,4l-2.9,0.9L164,24.4l-16.4,4.7l4.6,11.1l11.2,15.3l8.4,19.7l-6.3,9.2l-5.5-0.7L145.5,67l-6.9,11.8
	l-2.4,0.3l-7-6.9l-1.8-7.1L114,65.5L112.4,67.2z"/>
<path class="st1" d="M309,225.9l-7.1-4.3l-6.1-10.8l-0.7-9.8l-1.7-1.8l-16.9-1.3l-5.4-5.1l-3.5,3.4l-3.7,2.2l-8.6,0.3l-4.6-16.6
	l-3.5-3.4l-1.1-4.8l-7-1.5v-2.5l5.5-7.3l-1.9-6.4l0.7-16.9l-1.9-7.2l-15.4,6.3l-9.1,18.3l-4.2,6.1v5l-4.5,5.9l-5.1-11.1l-8.7,7.2
	l-5.5,12.7l-5.5,2.3l-10-14.4l-1.3,2.8l-6.1,3.2l-6-13.8l-14,5.4l-3.9,2.8l-7-2.2L119,179.8l2.2,4.5l-3.7,11.6l-5.5-0.7l0.4,12.7
	v5.2l-2,3.9l2.9,3.4l9.7,1.1l8.9,3.9l2.4-0.1l1.6-4.6l2.3-0.8l5.5,3.9l8,4.2l-0.3,2l3.5,1.5l-13.2,8.3l-8.3,2.4l-9.6,7.7l-1.1,7.1
	l3.6,2l3.6,8.3l4.8,4.6v0.1l8.9,7.7l-10.2,9.9l3.5,5.4l2.7,3.8l9.6-6.3l2.3,0.4l4.9,7.4l0.7,2.6l2.4,0.2l3.9,6.2l9.3,2.4l10.1,10.5
	l8.2,4.7l6.8-1.7l4.7-1.4l3.3-3.6l4.7-0.2l1.6,7.1l1.5,1.9l2.1,1.3l6.9-0.3l1.1,2.2l1.6-5.7h4.7l3.1-3.1l2.1-0.5l1.3,4.1l9.2-1.5
	l1.2,4.7l6.6,6.7L272,331l2.1-6.9l2.5-0.3l7.3,5.1l9.2-0.2l3.3,11l9.5,6.1l2-1.2l-0.5-4.6l4.4-12.8l2-1.3l9,2.9l3.5-3.1l-15-12.1
	l0.2-0.5l4.6-8.7l12.1,0.5l5.7-4.5l0.3-1l3.3-8.5l7.8,3.9l9.8-6.3l6.3-12l-9.7-13.4l-15.9,3.4l-9.9-7.5l-4.1-14.3l-10.1-10.5
	l0.7-4.8L309,225.9z"/>
<path class="st0" d="M483.3,484l3.8-2l0.6-9.8l-2.4-7l3.2,0.6l11.6-3.5l6.9,3l4,6.2l4.8,1.2l4.8-5.2l-1.2-6.6l2.3-6.6l7.8,1.2
	l3.4,2.9l2.1,6.3l18.1,0.4l4.2,1.7l2.1-0.6l-0.5-6.9l4.5,0.2l0.8,5.5l2.2,8l6.1,0.1l4.7,3.4l0.5,2.9l-3.6,1.3l2.9,2.7l-1.3,3.5v0.2
	l2.5,8.7l-0.4,12l-2.4,4.2l0.9,7.2l-2.6,6.8l-0.3,2.1l-6.2-0.4l-1.9,3.2l-6-0.7l-5.4-0.2l-2,2.4l-6.2,5l-3.5,1.6l0.5,4.2l-4.2,1.5
	l-0.2,2.3l-3.8,2.6l-4.4,1.3l-1.7-1.6l-3.9,3.1l-8.7-1.9l-0.7-4.5l-2-1.2l-3.4,1.6l-8-3.4l-5.9-1.1l-3.6,2l-0.2-4.6l-5.7-3.7l-6,0.4
	l-2.9,7.3L476,544l-1.1-2l-6.7-0.2l-1.4-1.8l-3.6-5.9l-1.4-2.3l0.5-5.1l-1.8-3.8l3.5-9.7l-1.1-9.7l5.7-7.9l6.3-2.8l1.6,1.8l-0.3,4.7
	l8-4.5l2.5-3.5L483.3,484z"/>
<path class="st0" d="M467.8,583.8l-13.5-4.1l-6.9,1.8l-0.2-0.2L444,579l-3.8-0.6l-4.4,4.8l-0.9,1.9l-7.1,1.7l-2.9-2.5l1.4-11.1
	l9.4-2.7l3.7,3.1l4.9,0.6v-5.3l-3.4-2.9l4.9-5.9l3.1-3.5l4.7,0.1l3.8-2.8l-2.6-3.5l-8.1-9l0.3-2.7l-6.5-9.2l-3.5,1.3L425.6,520
	l-2,0.6l-1.1-1.8l1.3-1.6l-3-5.3l-4-7.7l-1.6-9.3l-4.5-5.6l5,0.8l1.7,1.2l8.6-2.5l6.7-5.7l4.3-8.2l13.3-1.7l2.8-9.2l3.2-3.6l4.4-4.5
	l6.1-1.6l6.6,2.1l2.1,4.1l4.6,0.7l-0.6,4.6l4.4,1.1l1.6-1.7l2.4,7l-0.7,9.8l-3.8,2l3.3,7.2l-2.5,3.5l-7.9,4.5l0.3-4.7l-1.6-1.8
	l-6.3,2.8l-5.7,7.9l1.1,9.7l-3.5,9.7l1.8,3.8l-0.5,5.1l1.4,2.3l3.6,5.9l1.4,1.8l6.7,0.2l1.1,2l1.5-0.3l2.9-7.3l6-0.4l5.7,3.7
	l0.2,4.6l3.6-2l5.9,1.1l8,3.4l3.4-1.6l2,1.2l0.7,4.5l8.7,1.9l-1.7,7.2l7.7,2.7l3.2,6.3l-1,7l-3.7,2.3l-6.2-0.1l-0.4,4.1l2.5,3.3
	l-1.4,1.5l-9.6,3.4l-6.9-1.1l-5.5,1.1l-9,0.7l-6.1-3.2l-4.9-2l-2.4-0.7L467.8,583.8z"/>
<path class="st0" d="M535.6,585.9l-6.1,3.1l-5.8-1.8l-9.6,3.5l-6.9-1.2l-5.5,1.2l-9.1,0.7l-6.1-3.3l-0.8,11.6l12.4,3.3l1.5,4.3
	l4,0.3l-1.3,6.1l-2.8,3l0.5,2l-16.2-0.2l-4.6,11.7l-0.7,2.1l5.3,2.1l0.7,4l5.5,6.4l-4.3,2l-4.3,8.4l-9.8,0.2l-5.5,2.6l-1.2,0.7
	l6.6,9.6l8.9,2.8v2.5L462.5,685l-1,2l4.8,7.1l0.2,4.8l2.3-0.2l2,8.8l-4.6,7.9l-6.8-0.8l-0.5,4.6l4.6,5l-5.5,3v6.3l2,1.2l2.5,5.6
	l7.8,4.5l0.5,4l4.3,6.4l11.4-0.7l-0.8,4.6l8.9-1.7l2.5,6.3l13.9-4.1l11.6-8.6l2.1,1.3l4.5-1.8l0.3,0.3l5,3.6l1.3-4.3l2.1,0.5
	l3.3,0.8l3.1,5.6l-2,0.8l3.1,3.6l9.1-1.7l4-1.3l8.3,2.5l4.1-1l3-6.3l3.6-2.5l-0.7-2.1l1.3-2l9.4-0.5l8.3,3.6l2.6-2.3l5.5,4.5
	l4.3-0.2l3.8,2.5l-0.3,2l28.1,2.1l7.6-10.1l0.5-1.5l9.8-2.3l5.3-9.3l6.6-1.3l5.1,0.7l5.1,4.1l6.8,2.1l6.4,9.8l2.5,3.5l5-4l8.1-4.3
	l6.4,3l2-4.3l-3.6-2.5l2-4.3l2.5-3.6l4.3-1.8l16.7-7.1l-8.8-10.3l2.3-6l-5.3-4.1l-2-4.3l-2.1,0.3l-3.5-5.8l-4.5-1l-6.3-6l-14.2-8.1
	l-2.3,1.7l-3.8-2.3l-4.8,0.7l-8.7,3.3l-3.3,3.5l-1.7-0.2l-2.8-3.5l2.3-3.8l-3.6-3l-0.8-4l-14.7-8.4l-12.6,7.3l-2,6.9l-3.6,0.3
	l-3.3-0.5l-0.3,1.8l-9.9-8.9l0.5,8.6l-8.8-3l-4.1,1.3l-3-3.5l-5.3,5.8l-5.3,9.8l-13.1,1.3l-6.9-1.8l-3.1-1l-2.3,0.8l-2.3-0.5
	l-3.3,3.5l-8.8-3.8l-2-6.3l2.1-6l-3.8-2.1l5.6-4.3l2.1,1.2l0.7-4.1l-3-3.1l1.3-4.1l8.4-1.8l-0.2-5.1l2.3-0.2l7.3-10.9l-2.3-4.5
	l-5.1-16.4l8.6,1.5l5.3-3.6l2.1,0.5l3.1-5L582,611l-2.1-6.9l-3.6-2.8l-1-4.6l-6.1-3.6l-8.6,4.6l-4.3-1l0.2-2.6l-4.1-0.8l-3,3.1l-1-2
	l-2,0.8l-2,0.3l-3.3-5.5L535.6,585.9z M447.6,650.4l-1.2,4.3l-8.9,5.6l-0.3,4.3l-6,1.8l-3.1-1.8L423,668l-1.8-1l-4.1,8.4l3.5,5.6
	l-0.8,6.9l4.5,5.1l6.3-2.5l5.6-9.9l6.9-1.3l6.6,2.6l2.3-1.5l-2-11.7l12.6-10.9l-0.8-2l-1.8-4.1L447.6,650.4z"/>
<path class="st0" d="M582.1,611.4l-2-6.9l-3.8-2.9l-0.9-4.6l-6.2-3.7l-8.5,4.7l-4.3-1.1l0.1-2.6l-4-0.8l-3.1,3.1l-0.9-2l-2,0.8
	l-2.1,0.3l-3.3-5.4l-5.5-4.4l-6.1,3.1l-5.8-1.8l1.4-1.5l-2.5-3.3l0.4-4.1l6.2,0.1l3.7-2.3l1-7l-3.2-6.3l-7.7-2.7l1.7-7.2l3.9-3.1
	l1.7,1.6l4.4-1.3l3.8-2.6l0.2-2.3l4.2-1.5l-0.5-4.2l3.5-1.6l6.2-5l2-2.4l5.4,0.2l5.9,0.7l1.9-3.2l6.2,0.4l0.3-2.1l2.6-6.8l-0.9-7.2
	l2.4-4.2l0.4-12l-2.5-8.7l1.2,3.1l5.2,2.1l-0.8,2.3l3.6,2.4l-3.3,8.9l5,16l0.3,7.1l-1.9,1.4l0.6,2.6l5.7-4.5l-0.2-4.3l12.3-11.1
	l5.8,10.4l3.9-4.2l5.4-1.9l-1.1-4.4l-4.3-1.4l-0.4-4.7l1.3-1l0.5,0.2l6.2,4l3,6.7l6.2,4.1l1.3-3.2l2.7,0.2l1.2,4.6l6.8,6.5l-2.5,3.4
	l4,2.4l4.5-1.4l1.8,1.4l2.4-0.5l11.2,5l7.3,0.7l3.3,7.3l-5.4,3l-1.6,3.8l2.6,7.9l-2.3,3.2l1.8,3.8l-3.6,5.7l-6.3,2.4l-3.6-0.4
	l-6,0.9l-8.2-1.2l-1.7,1.3l-1.8,1.5l2.2,4.1l-4.9,12.8l-0.4,3l-1.4,0.6l-6.1-7.2l-11.8-2l-12.4,12l-6-1.3l-11.6,13L582.1,611.4z"/>
<path class="st0" d="M677.6,487.1l-4.2,0.7v0.3L671,488l-2.9,3.8l-1.7,11.7l-1.8,1.6l-1.8-3.3l-3.8,1.1l-3.6,6.4l-7,6.4l-4.7,0.5
	l-3.7-3.1l2.4-3.5l-10.3-10.4l-5.1,5.2l-4.4-2l0.3-7.2l-7.4,6.1l-0.7,4.8l-0.5-0.2l-4.6-18.3l-2.9,3l-7.8-4.8l-9.7,6.5l-6.9,0.1
	l-5.2-2.1l-1.2-3.1V487l1.3-3.5l-2.9-2.7l3.6-1.3l-0.5-2.9l-4.7-3.4l-6.1-0.1l-2.2-8l-0.8-5.5l-4.4-8.3l3.5,2.2l6.1-0.7l0.6-1.2
	l8.7-3.1l2.9-3.7l0.2-4.7l-1.9-3.4l-2.3,0.8l-5-5.2l-3.7-11.4l1.8-6l11.5,3l7.6,9l5.8-4.1l6.9-1.4l13.5-7.3l1.7,1.3h4.8l2.7-9.6
	l6.3-7.6l2.2-1.2l14.2,3.5l4.3,2.5l1,2.3l-0.4,2.5l-8.2,12l-0.6,2.4l0.6,4.9l1.5,1.9l2.3-1l6.3-3.7l16.7-2.7l4.5-1.2l6.6,6.4
	l-1.7,6.8l1.4,25.3l4.6,1.4l7.2,6l-2.2,6.7l1.3-2l2.2,0.9l3,3.7l1.4,11.8l-4.1,2.1L693,488l-8.9-3.7l-3.8-0.5L677.6,487.1z"/>
<path class="st0" d="M692.8,423.1l-11.1,4l-1.7,6.8l1.3,25.3l4.6,1.3l7.3,6.1l-2.3,6.6l1.3-2l2.1,0.8l3,3.8l1.5,11.7l-4.1,2.1
	l-1.7-1.7l-8.9-3.8l-3.8-0.5l-2.8,3.3l-4.1,0.7v0.3l-2.5-0.2l-3,3.8l-1.7,11.7l-1.8,1.7l-1.8-3.3l-3.8,1l-3.6,6.4l-6.9,6.4l-4.8,0.5
	l-3.6-3l2.3-3.6L631.9,499l-5.1,5.1l-4.5-2l0.3-7.1l-7.4,6.1l-0.8,4.8l6.3,4l3.1,6.6l6.1,4.1l1.3-3.3l2.6,0.3l1.2,4.5l6.9,6.6
	l-2.6,3.5l4,2.3l4.5-1.3l1.8,1.5l2.5-0.5l11.2,5l7.3,0.7l3.3,7.3l-5.5,3l-1.5,3.8l2.5,7.9l14.7-3l5.8-6.1l2.3,1.3l5.1-4.6l3-6.3
	l2.3-0.3l5.6,2v2l4.1-1.7l1.8-4.3l8.1-4l1-4.6l-4.8-5.3l0.5-9.4l-3.8-5.8l3.3-6.6l3.5-6.4l0.2-14.5l-2-18.8l-3.8-5.8l0.2-9.1
	l-3.1-3.6l-4.6-0.3l-6.3-12.9L692.8,423.1z M598.7,485.9l-9.8,6.4l-6.9,0.2l-0.7,2.3l3.5,2.3l-3.3,8.9l5.1,16l0.3,7.1l-2,1.5
	l0.7,2.5l5.6-4.5l-0.2-4.3l12.2-11.1l5.8,10.4l4-4.3l5.5-2l-1.2-4.3l-4.3-1.5l-0.5-4.6l1.3-1l-4.5-18.3l-3,3L598.7,485.9z"/>
<path class="st0" d="M417.4,337.4l6.7,11.6l7.6,6.9l3.9,0.4l5.6-6.5h2.5l3.5,2.6l1.4,8.5l2.8,3l8,1l-1.2-6.3l-6.9-12.8l4.3-6
	l-0.7-5.6l-4-6.6l-3.7-4l-4.3-0.1l-5.5,1.3l3.6,6.5l1.5,4.8l-1.9,2.7l-0.1,1.6l-2.5,5.9l-2.4,0.5l-3.8-3l-3.4-9l-3.7-2.5l-6.7,1.5
	L417.4,337.4z"/>
<path class="st0" d="M461.7,321.4l3.9,3.5l-1.1,4.9l-6.6-1.9l-6.9-0.7l4,6.6l0.7,5.6l-4.3,6l6.9,12.8l0.9-2.3l4.6-0.6l7.3-12.1
	l8.4,7.1l2-1l15.8-0.5l3.3-5.2l-1.8-1.7l1.4-4.6l7.6-6.1l2.4-0.4l1,2.2l1.5-7.5l-0.5-0.1l-4.2-0.1l-1.3,4.4l-2.4-0.1l-3.6-2.9
	l2.3-3.8l-2.9-11.2l-4.5,0.7l-3.4-2.9l-2.5-3.8l-4.2-1.7l0.1-4.5l-4.3-1.6l-0.8,6.7l-4.1,7.6l-3.8-0.4l0.3,3.7l-7.3-2.7L461.7,321.4
	z"/>
<path class="st0" d="M447.4,323.3l-4.3-0.1l-5.5,1.3l-2.5-2.3l-3.1,2.4L420.3,313l-8.6-6.3l-5.9,2.2l-8.4-11.5l3.5-4.3l4.3-0.9
	l5.6-8.7l-6.8-11.7l-6-2.9l-2.6-6.3l-4.8-5l2.9-2.7l-2.7-6.3l1.1-2l7.7-5.3l6.7,1.8l5.1-4.9l12-7.8l2.4-4l9.1,2.5l2.4-3.9l8.2-3.7
	l1,12l-1.6,7l2.7,4l-2.7,4.3l-4.4,2.1l-4,1.6l-1.8,3.9l6.1,6.1l4-1.1l3.8,3.8l2.9,6.6l0.8,16.2l4.8,3.5l-7,11.4l6.6,10.7l-3.7,5.5
	L447.4,323.3z"/>
<path class="st0" d="M500.2,312l-4.5,0.7l-3.4-2.9l-2.5-3.8l-4.2-1.7l0.1-4.5l-4.3-1.6l-0.8,6.7l-4.1,7.6l-3.8-0.4l-2.5-9.3l2.1-7
	l-1.8-6.8l8-4.3l5.1-1.1l8.5-4.6l7.2,5.4l0.3,3.5l-3.6,3.2l-2,3.4l-2.8,2.4l6.2,3l10.2,1.2l1.6-1.6l5.7-6.3l1-4l0.6-2.6l17.2-1.3
	l3.7,10.8l-8.1,4.4l-0.8,2.2l1.3,10.9l-9.3-4.1l-1.6,1.5l-5.9,7.6l-0.8,7l-4.2-0.1l-5-2.4L500.2,312z"/>
<path class="st0" d="M497.9,268.9l10-16.4l1.2,2.2l-3.1,6.5l8.5,8.7l16.7,1.9l5.4,8.1l-0.4,4.9l-2.4,0.5l-17.2,1.3l-1.6,6.7l-7.3,8
	l-10.2-1.2l-6.2-3l2.8-2.4l2-3.4l3.6-3.2l-0.3-3.5l-7.2-5.4L497.9,268.9z"/>
<path class="st0" d="M473.1,260.1l-3.6,2.9l-4.3-0.9l-3.1-3.4l-4.6-0.3l-4.3,5.5l-4.4,1.2l2.9,6.6l0.8,16.2l4.8,3.5l-7,11.4
	l6.6,10.7l-3.7,5.5l-5.8,4.2l3.7,4l6.9,0.7l6.6,1.9l1.1-4.9l-3.9-3.5l4-8.4l7.3,2.7l-0.3-3.7l-2.5-9.3l2.1-7l-1.8-6.8l8-4.3l5.1-1.1
	l8.5-4.6l15.6-26.6l-3.7-2.3l-5.6,9l-4.3,1.3l-4.3,5.7l-5.9,2.2l-4.6-0.5l-0.4-4.6L473.1,260.1z"/>
<path class="st0" d="M445,240.3l2.7,4l-2.7,4.3l-4.4,2.1l-4,1.6l-1.8,3.9l6.1,6.1l4-1.1l3.8,3.8l4.4-1.2l4.3-5.5l4.6,0.3l3.1,3.4
	l4.3,0.9l3.7-2.9l6,3.2l0.3,4.6l4.6,0.5l5.9-2.2l4.3-5.7l4.3-1.3l5.6-9l-1.8-6.3L492,227.2l-6.6-12.6l-9.7,1.5l-6.1-3.8l-4.3,8.7
	l-5.7,4.7l-4.3,1.1l-9.9-5.6l1,12L445,240.3z"/>
</svg>
